<!DOCTYPE svg PUBLIC "-//W3C//DTD SVG 1.1//EN" "http://www.w3.org/Graphics/SVG/1.1/DTD/svg11.dtd">
<!-- Uploaded to: SVG Repo, www.svgrepo.com, Transformed by: SVG Repo Mixer Tools -->
<svg fill="#7EA16B" width="205px" height="205px" viewBox="-0.96 -0.96 33.92 33.92" version="1.1" xmlns="http://www.w3.org/2000/svg" stroke="#7EA16B" stroke-width="0.384">
<g id="SVGRepo_bgCarrier" stroke-width="0"/>
<g id="SVGRepo_tracerCarrier" stroke-linecap="round" stroke-linejoin="round"/>
<g id="SVGRepo_iconCarrier"> <path d="M16 0c-8.836 0-16 7.163-16 16s7.163 16 16 16c8.837 0 16-7.163 16-16s-7.163-16-16-16zM16 30.032c-7.72 0-14-6.312-14-14.032s6.28-14 14-14 14 6.28 14 14-6.28 14.032-14 14.032zM22.386 10.146l-9.388 9.446-4.228-4.227c-0.39-0.39-1.024-0.39-1.415 0s-0.391 1.023 0 1.414l4.95 4.95c0.39 0.39 1.024 0.39 1.415 0 0.045-0.045 0.084-0.094 0.119-0.145l9.962-10.024c0.39-0.39 0.39-1.024 0-1.415s-1.024-0.39-1.415 0z"/> </g>
</svg>